<svg width="176" height="115" viewBox="0 0 176 115" fill="none" xmlns="http://www.w3.org/2000/svg">
<path d="M21.6 61.208C20.96 61.528 20.272 61.816 19.536 62.072C18.832 62.328 18.064 62.536 17.232 62.696C18.064 62.888 18.832 63.112 19.536 63.368C20.272 63.592 20.96 63.88 21.6 64.232L43.152 75.128C43.792 75.448 44.24 75.816 44.496 76.232C44.752 76.648 44.88 77.112 44.88 77.624V83.768L7.776 64.472V60.92L44.88 41.672V47.768C44.88 48.312 44.752 48.792 44.496 49.208C44.24 49.592 43.792 49.944 43.152 50.264L21.6 61.208ZM112.76 80.792C113.272 80.792 113.72 81 114.104 81.416L117.8 85.4C114.984 88.664 111.56 91.208 107.528 93.032C103.528 94.856 98.6795 95.768 92.9835 95.768C88.0555 95.768 83.5755 94.92 79.5435 93.224C75.5115 91.496 72.0715 89.096 69.2235 86.024C66.3755 82.92 64.1675 79.208 62.5995 74.888C61.0315 70.568 60.2475 65.816 60.2475 60.632C60.2475 55.448 61.0635 50.696 62.6955 46.376C64.3275 42.056 66.6155 38.344 69.5595 35.24C72.5355 32.136 76.0875 29.736 80.2155 28.04C84.3435 26.312 88.9035 25.448 93.8955 25.448C98.7915 25.448 103.112 26.232 106.856 27.8C110.6 29.368 113.896 31.496 116.744 34.184L113.672 38.456C113.48 38.776 113.224 39.048 112.904 39.272C112.616 39.464 112.216 39.56 111.704 39.56C111.128 39.56 110.424 39.256 109.592 38.648C108.76 38.008 107.672 37.304 106.328 36.536C104.984 35.768 103.304 35.08 101.288 34.472C99.2715 33.832 96.7915 33.512 93.8475 33.512C90.2955 33.512 87.0475 34.136 84.1035 35.384C81.1595 36.6 78.6155 38.376 76.4715 40.712C74.3595 43.048 72.7115 45.896 71.5275 49.256C70.3435 52.616 69.7515 56.408 69.7515 60.632C69.7515 64.92 70.3595 68.744 71.5755 72.104C72.8235 75.464 74.5035 78.312 76.6155 80.648C78.7595 82.952 81.2715 84.712 84.1515 85.928C87.0635 87.144 90.1995 87.752 93.5595 87.752C95.6075 87.752 97.4475 87.64 99.0795 87.416C100.744 87.16 102.264 86.776 103.64 86.264C105.048 85.752 106.344 85.112 107.528 84.344C108.744 83.544 109.944 82.6 111.128 81.512C111.672 81.032 112.216 80.792 112.76 80.792ZM167.717 60.92V64.472L130.613 83.768V77.624C130.613 77.112 130.741 76.648 130.997 76.232C131.253 75.816 131.701 75.448 132.341 75.128L153.893 64.232C154.533 63.88 155.205 63.592 155.909 63.368C156.645 63.112 157.413 62.888 158.213 62.696C156.581 62.344 155.141 61.848 153.893 61.208L132.341 50.264C131.701 49.944 131.253 49.592 130.997 49.208C130.741 48.792 130.613 48.312 130.613 47.768V41.672L167.717 60.92Z" fill="#88B6FF"/>
<path d="M21.6 61.208L22.0472 62.1024L22.0528 62.0996L21.6 61.208ZM19.536 62.072L19.2074 61.1274L19.1943 61.1322L19.536 62.072ZM17.232 62.696L17.0432 61.714L17.0071 63.6704L17.232 62.696ZM19.536 63.368L19.1943 64.3078L19.2193 64.3169L19.2448 64.3247L19.536 63.368ZM21.6 64.232L21.1181 65.1082L21.1333 65.1166L21.1488 65.1244L21.6 64.232ZM43.152 75.128L42.7008 76.0204L42.7048 76.0224L43.152 75.128ZM44.496 76.232L45.3477 75.7079L45.3477 75.7079L44.496 76.232ZM44.88 83.768L44.4186 84.6552L45.88 85.4152V83.768H44.88ZM7.776 64.472H6.776V65.0791L7.31461 65.3592L7.776 64.472ZM7.776 60.92L7.31552 60.0323L6.776 60.3122V60.92H7.776ZM44.88 41.672H45.88V40.0267L44.4195 40.7843L44.88 41.672ZM44.496 49.208L45.3281 49.7627L45.3381 49.7476L45.3477 49.7321L44.496 49.208ZM43.152 50.264L42.7048 49.3696L42.6992 49.3724L43.152 50.264ZM21.1528 60.3136C20.5545 60.6127 19.9064 60.8844 19.2075 61.1275L19.8645 63.0165C20.6376 62.7476 21.3656 62.4433 22.0472 62.1024L21.1528 60.3136ZM19.1943 61.1322C18.546 61.3679 17.8298 61.5627 17.0432 61.714L17.4208 63.678C18.2982 63.5093 19.118 63.2881 19.8777 63.0118L19.1943 61.1322ZM17.0071 63.6704C17.8049 63.8545 18.5333 64.0675 19.1943 64.3078L19.8777 62.4282C19.1307 62.1565 18.3231 61.9215 17.4569 61.7216L17.0071 63.6704ZM19.2448 64.3247C19.9181 64.5296 20.5418 64.7913 21.1181 65.1082L22.0819 63.3558C21.3782 62.9687 20.6259 62.6544 19.8272 62.4113L19.2448 64.3247ZM21.1488 65.1244L42.7008 76.0204L43.6032 74.2356L22.0512 63.3396L21.1488 65.1244ZM42.7048 76.0224C43.251 76.2955 43.5214 76.5562 43.6443 76.7561L45.3477 75.7079C44.9586 75.0758 44.333 74.6005 43.5992 74.2336L42.7048 76.0224ZM43.6443 76.7561C43.7986 77.0067 43.88 77.2877 43.88 77.624H45.88C45.88 76.9363 45.7054 76.2893 45.3477 75.7079L43.6443 76.7561ZM43.88 77.624V83.768H45.88V77.624H43.88ZM45.3414 82.8808L8.23739 63.5848L7.31461 65.3592L44.4186 84.6552L45.3414 82.8808ZM8.776 64.472V60.92H6.776V64.472H8.776ZM8.23648 61.8077L45.3405 42.5597L44.4195 40.7843L7.31552 60.0323L8.23648 61.8077ZM43.88 41.672V47.768H45.88V41.672H43.88ZM43.88 47.768C43.88 48.1486 43.7926 48.443 43.6443 48.6839L45.3477 49.7321C45.7114 49.141 45.88 48.4754 45.88 47.768H43.88ZM43.664 48.6533C43.5435 48.8339 43.2674 49.0883 42.7048 49.3696L43.5992 51.1584C44.3167 50.7997 44.9365 50.3501 45.3281 49.7627L43.664 48.6533ZM42.6992 49.3724L21.1472 60.3164L22.0528 62.0996L43.6048 51.1556L42.6992 49.3724ZM114.104 81.416L113.369 82.0943L113.37 82.0961L114.104 81.416ZM117.8 85.4L118.557 86.0532L119.141 85.3758L118.533 84.7199L117.8 85.4ZM107.528 93.032L107.115 92.1209L107.113 92.1221L107.528 93.032ZM79.5435 93.224L79.1496 94.1432L79.1558 94.1458L79.5435 93.224ZM69.2235 86.024L68.4867 86.7001L68.4902 86.7039L69.2235 86.024ZM62.5995 74.888L63.5395 74.5468L63.5395 74.5468L62.5995 74.888ZM62.6955 46.376L63.631 46.7294L63.631 46.7294L62.6955 46.376ZM69.5595 35.24L68.8377 34.5479L68.8339 34.5518L69.5595 35.24ZM80.2155 28.04L80.5955 28.965L80.6016 28.9624L80.2155 28.04ZM106.856 27.8L107.242 26.8776L107.242 26.8776L106.856 27.8ZM116.744 34.184L117.555 34.7678L118.066 34.0574L117.43 33.4568L116.744 34.184ZM113.672 38.456L112.86 37.8722L112.835 37.9059L112.814 37.9415L113.672 38.456ZM112.904 39.272L113.458 40.1041L113.468 40.0977L113.477 40.0912L112.904 39.272ZM109.592 38.648L108.982 39.4406L108.992 39.4481L109.001 39.4554L109.592 38.648ZM106.328 36.536L106.824 35.6678L106.824 35.6678L106.328 36.536ZM101.288 34.472L100.985 35.4251L100.992 35.4273L100.999 35.4294L101.288 34.472ZM84.1035 35.384L84.4853 36.3083L84.4938 36.3047L84.1035 35.384ZM76.4715 40.712L75.7347 40.0358L75.7297 40.0414L76.4715 40.712ZM71.5755 72.104L70.6352 72.4443L70.6381 72.4522L71.5755 72.104ZM76.6155 80.648L75.8737 81.3186L75.8785 81.324L75.8834 81.3292L76.6155 80.648ZM84.1515 85.928L83.7625 86.8493L83.7662 86.8508L84.1515 85.928ZM99.0795 87.416L99.2155 88.4067L99.2235 88.4056L99.2316 88.4044L99.0795 87.416ZM103.64 86.264L103.298 85.3242L103.291 85.3268L103.64 86.264ZM107.528 84.344L108.072 85.183L108.077 85.1794L107.528 84.344ZM111.128 81.512L110.466 80.7622L110.458 80.7688L110.451 80.7757L111.128 81.512ZM112.76 81.792C112.961 81.792 113.152 81.8593 113.369 82.0943L114.838 80.7377C114.287 80.1407 113.582 79.792 112.76 79.792V81.792ZM113.37 82.0961L117.066 86.0801L118.533 84.7199L114.837 80.7359L113.37 82.0961ZM117.042 84.7468C114.324 87.8978 111.019 90.3551 107.115 92.1209L107.94 93.9431C112.1 92.0609 115.643 89.4302 118.557 86.0532L117.042 84.7468ZM107.113 92.1221C103.275 93.8719 98.577 94.768 92.9835 94.768V96.768C98.782 96.768 103.78 95.8401 107.942 93.9419L107.113 92.1221ZM92.9835 94.768C88.1718 94.768 83.8259 93.9404 79.9312 92.3022L79.1558 94.1458C83.3251 95.8996 87.9392 96.768 92.9835 96.768V94.768ZM79.9374 92.3049C76.0279 90.6293 72.7052 88.3087 69.9568 85.3441L68.4902 86.7039C71.4378 89.8833 74.9951 92.3627 79.1496 94.1431L79.9374 92.3049ZM69.9603 85.3479C67.2093 82.3496 65.0666 78.7542 63.5395 74.5468L61.6595 75.2292C63.2684 79.6618 65.5417 83.4904 68.4867 86.7001L69.9603 85.3479ZM63.5395 74.5468C62.0159 70.3492 61.2475 65.7144 61.2475 60.632H59.2475C59.2475 65.9176 60.0471 70.7868 61.6595 75.2292L63.5395 74.5468ZM61.2475 60.632C61.2475 55.554 62.0465 50.9235 63.631 46.7294L61.76 46.0226C60.0805 50.4685 59.2475 55.342 59.2475 60.632H61.2475ZM63.631 46.7294C65.2197 42.5239 67.4397 38.9282 70.2851 35.9282L68.8339 34.5518C65.7913 37.7598 63.4353 41.5881 61.76 46.0226L63.631 46.7294ZM70.2813 35.9321C73.1572 32.9325 76.5915 30.6101 80.5955 28.965L79.8355 27.115C75.5835 28.8619 71.9138 31.3395 68.8377 34.5479L70.2813 35.9321ZM80.6016 28.9624C84.594 27.2912 89.0208 26.448 93.8955 26.448V24.448C88.7862 24.448 84.093 25.3328 79.8294 27.1176L80.6016 28.9624ZM93.8955 26.448C98.6856 26.448 102.87 27.215 106.469 28.7224L107.242 26.8776C103.353 25.249 98.8974 24.448 93.8955 24.448V26.448ZM106.469 28.7224C110.106 30.2456 113.3 32.3088 116.057 34.9112L117.43 33.4568C114.491 30.6832 111.093 28.4904 107.242 26.8776L106.469 28.7224ZM115.932 33.6002L112.86 37.8722L114.483 39.0398L117.555 34.7678L115.932 33.6002ZM112.814 37.9415C112.698 38.1355 112.541 38.3054 112.33 38.4528L113.477 40.0912C113.906 39.7906 114.261 39.4165 114.529 38.9705L112.814 37.9415ZM112.349 38.4399C112.286 38.4816 112.107 38.56 111.704 38.56V40.56C112.324 40.56 112.945 40.4463 113.458 40.1041L112.349 38.4399ZM111.704 38.56C111.45 38.56 110.961 38.4103 110.182 37.8406L109.001 39.4554C109.886 40.1017 110.805 40.56 111.704 40.56V38.56ZM110.201 37.8554C109.321 37.178 108.19 36.4488 106.824 35.6678L105.831 37.4042C107.153 38.1592 108.198 38.838 108.982 39.4406L110.201 37.8554ZM106.824 35.6678C105.395 34.8516 103.641 34.1372 101.576 33.5146L100.999 35.4294C102.966 36.0228 104.572 36.6844 105.831 37.4042L106.824 35.6678ZM101.59 33.5189C99.4463 32.8383 96.8571 32.512 93.8475 32.512V34.512C96.7259 34.512 99.0967 34.8257 100.985 35.4251L101.59 33.5189ZM93.8475 32.512C90.1763 32.512 86.7937 33.1575 83.7132 34.4633L84.4938 36.3047C87.3013 35.1145 90.4147 34.512 93.8475 34.512V32.512ZM83.7217 34.4597C80.6434 35.7312 77.978 37.5917 75.7348 40.0358L77.2082 41.3882C79.253 39.1603 81.6756 37.4687 84.4853 36.3083L83.7217 34.4597ZM75.7297 40.0414C73.5179 42.4877 71.8066 45.455 70.5843 48.9236L72.4707 49.5883C73.6164 46.337 75.2011 43.6082 77.2133 41.3826L75.7297 40.0414ZM70.5843 48.9236C69.3565 52.4082 68.7515 56.3153 68.7515 60.632H70.7515C70.7515 56.5007 71.3305 52.8238 72.4707 49.5883L70.5843 48.9236ZM68.7515 60.632C68.7515 65.0135 69.3727 68.9558 70.6352 72.4443L72.5158 71.7637C71.3463 68.5322 70.7515 64.8265 70.7515 60.632H68.7515ZM70.6381 72.4522C71.9242 75.9148 73.6657 78.8765 75.8737 81.3186L77.3573 79.9774C75.3413 77.7475 73.7228 75.0132 72.5129 71.7558L70.6381 72.4522ZM75.8834 81.3292C78.1229 83.7358 80.7516 85.578 83.7625 86.8492L84.5405 85.0067C81.7914 83.846 79.3961 82.1682 77.3476 79.9668L75.8834 81.3292ZM83.7662 86.8508C86.808 88.121 90.0759 88.752 93.5595 88.752V86.752C90.3231 86.752 87.319 86.167 84.5368 85.0052L83.7662 86.8508ZM93.5595 88.752C95.6426 88.752 97.5291 88.6382 99.2155 88.4067L98.9435 86.4253C97.3659 86.6418 95.5725 86.752 93.5595 86.752V88.752ZM99.2316 88.4044C100.953 88.1395 102.54 87.7401 103.988 87.2012L103.291 85.3268C101.987 85.8119 100.534 86.1805 98.9274 86.4276L99.2316 88.4044ZM103.981 87.2038C105.456 86.6675 106.82 85.9946 108.072 85.183L106.983 83.505C105.867 84.2294 104.639 84.8365 103.298 85.3242L103.981 87.2038ZM108.077 85.1794C109.342 84.347 110.585 83.369 111.804 82.2483L110.451 80.7757C109.302 81.831 108.145 82.741 106.978 83.5086L108.077 85.1794ZM111.789 82.2618C112.212 81.8885 112.531 81.792 112.76 81.792V79.792C111.9 79.792 111.131 80.1755 110.466 80.7622L111.789 82.2618ZM167.717 60.92H168.717V60.3122L168.177 60.0323L167.717 60.92ZM167.717 64.472L168.178 65.3592L168.717 65.0791V64.472H167.717ZM130.613 83.768H129.613V85.4152L131.074 84.6552L130.613 83.768ZM130.997 76.232L130.145 75.7079L130.145 75.7079L130.997 76.232ZM132.341 75.128L132.788 76.0224L132.792 76.0204L132.341 75.128ZM153.893 64.232L154.344 65.1244L154.359 65.1166L154.374 65.1082L153.893 64.232ZM155.909 63.368L156.212 64.3209L156.224 64.3169L156.237 64.3125L155.909 63.368ZM158.213 62.696L158.446 63.6684L158.423 61.7185L158.213 62.696ZM153.893 61.208L154.349 60.3182L154.345 60.3164L153.893 61.208ZM132.341 50.264L132.793 49.3724L132.788 49.3696L132.341 50.264ZM130.997 49.208L130.145 49.7321L130.154 49.7476L130.164 49.7627L130.997 49.208ZM130.613 41.672L131.073 40.7843L129.613 40.0267V41.672H130.613ZM166.717 60.92V64.472H168.717V60.92H166.717ZM167.255 63.5848L130.151 82.8808L131.074 84.6552L168.178 65.3592L167.255 63.5848ZM131.613 83.768V77.624H129.613V83.768H131.613ZM131.613 77.624C131.613 77.2877 131.694 77.0067 131.848 76.7561L130.145 75.7079C129.787 76.2893 129.613 76.9363 129.613 77.624H131.613ZM131.848 76.7561C131.971 76.5562 132.242 76.2955 132.788 76.0224L131.893 74.2336C131.159 74.6005 130.534 75.0758 130.145 75.7079L131.848 76.7561ZM132.792 76.0204L154.344 65.1244L153.441 63.3396L131.889 74.2356L132.792 76.0204ZM154.374 65.1082C154.957 64.7879 155.569 64.5254 156.212 64.3209L155.605 62.4151C154.84 62.6585 154.108 62.9721 153.411 63.3558L154.374 65.1082ZM156.237 64.3125C156.94 64.0679 157.676 63.8531 158.446 63.6684L157.979 61.7236C157.149 61.9229 156.349 62.1561 155.58 62.4235L156.237 64.3125ZM158.423 61.7185C156.861 61.3815 155.506 60.9117 154.349 60.3182L153.436 62.0978C154.775 62.7843 156.3 63.3065 158.002 63.6735L158.423 61.7185ZM154.345 60.3164L132.793 49.3724L131.888 51.1556L153.44 62.0996L154.345 60.3164ZM132.788 49.3696C132.225 49.0883 131.949 48.8339 131.829 48.6533L130.164 49.7627C130.556 50.3501 131.176 50.7997 131.893 51.1584L132.788 49.3696ZM131.848 48.6839C131.7 48.443 131.613 48.1486 131.613 47.768H129.613C129.613 48.4754 129.781 49.141 130.145 49.7321L131.848 48.6839ZM131.613 47.768V41.672H129.613V47.768H131.613ZM130.152 42.5597L167.256 61.8077L168.177 60.0323L131.073 40.7843L130.152 42.5597Z" fill="black"/>
<path d="M101.656 63.232L96.256 49.24C96.096 48.824 95.928 48.344 95.752 47.8C95.576 47.24 95.408 46.648 95.248 46.024C94.912 47.32 94.568 48.4 94.216 49.264L88.816 63.232H101.656ZM111.352 76H107.752C107.336 76 107 75.896 106.744 75.688C106.488 75.48 106.296 75.216 106.168 74.896L102.952 66.592H87.52L84.304 74.896C84.208 75.184 84.024 75.44 83.752 75.664C83.48 75.888 83.144 76 82.744 76H79.144L92.896 41.608H97.6L111.352 76Z" fill="#C22085"/>
<path d="M101.656 63.232V64.232H103.114L102.589 62.8719L101.656 63.232ZM96.256 49.24L95.3227 49.599L95.3231 49.6001L96.256 49.24ZM95.752 47.8L94.798 48.0998L94.8006 48.1078L95.752 47.8ZM95.248 46.024L96.2167 45.7756L94.28 45.773L95.248 46.024ZM94.216 49.264L93.2899 48.8867L93.2865 48.895L93.2833 48.9034L94.216 49.264ZM88.816 63.232L87.8833 62.8714L87.3573 64.232H88.816V63.232ZM111.352 76V77H112.829L112.281 75.6287L111.352 76ZM106.744 75.688L106.113 76.4641L106.113 76.4641L106.744 75.688ZM106.168 74.896L105.235 75.2572L105.24 75.2674L106.168 74.896ZM102.952 66.592L103.885 66.2309L103.637 65.592H102.952V66.592ZM87.52 66.592V65.592H86.8349L86.5875 66.2309L87.52 66.592ZM84.304 74.896L83.3715 74.5349L83.3629 74.5571L83.3553 74.5798L84.304 74.896ZM83.752 75.664L84.3877 76.4359L84.3877 76.4359L83.752 75.664ZM79.144 76L78.2155 75.6287L77.6672 77H79.144V76ZM92.896 41.608V40.608H92.2189L91.9675 41.2367L92.896 41.608ZM97.6 41.608L98.5285 41.2367L98.2771 40.608H97.6V41.608ZM102.589 62.8719L97.1889 48.8799L95.3231 49.6001L100.723 63.5921L102.589 62.8719ZM97.1893 48.881C97.0374 48.4858 96.8753 48.0235 96.7034 47.4922L94.8006 48.1078C94.9807 48.6645 95.1547 49.1622 95.3227 49.599L97.1893 48.881ZM96.706 47.5002C96.5358 46.9587 96.3727 46.384 96.2167 45.7756L94.2793 46.2724C94.4433 46.912 94.6162 47.5213 94.798 48.0998L96.706 47.5002ZM94.28 45.773C93.9508 47.0428 93.6197 48.0773 93.2899 48.8867L95.1421 49.6413C95.5163 48.7227 95.8732 47.5972 96.216 46.275L94.28 45.773ZM93.2833 48.9034L87.8833 62.8714L89.7487 63.5926L95.1487 49.6246L93.2833 48.9034ZM88.816 64.232H101.656V62.232H88.816V64.232ZM111.352 75H107.752V77H111.352V75ZM107.752 75C107.504 75 107.41 74.9406 107.375 74.9119L106.113 76.4641C106.59 76.8514 107.168 77 107.752 77V75ZM107.375 74.9119C107.257 74.8161 107.164 74.6939 107.096 74.5246L105.24 75.2674C105.428 75.7381 105.719 76.1439 106.113 76.4641L107.375 74.9119ZM107.101 74.5349L103.885 66.2309L102.019 66.9531L105.235 75.2571L107.101 74.5349ZM102.952 65.592H87.52V67.592H102.952V65.592ZM86.5875 66.2309L83.3715 74.5349L85.2365 75.2571L88.4525 66.9531L86.5875 66.2309ZM83.3553 74.5798C83.3278 74.6624 83.267 74.768 83.1163 74.8921L84.3877 76.4359C84.781 76.112 85.0882 75.7056 85.2527 75.2122L83.3553 74.5798ZM83.1163 74.8921C83.0474 74.9488 82.9452 75 82.744 75V77C83.3428 77 83.9126 76.8272 84.3877 76.4359L83.1163 74.8921ZM82.744 75H79.144V77H82.744V75ZM80.0725 76.3713L93.8245 41.9793L91.9675 41.2367L78.2155 75.6287L80.0725 76.3713ZM92.896 42.608H97.6V40.608H92.896V42.608ZM96.6715 41.9793L110.423 76.3713L112.281 75.6287L98.5285 41.2367L96.6715 41.9793Z" fill="black"/>
</svg>
